<svg width="600" height="450" viewBox="0 0 800 600" fill="none" xmlns="http://www.w3.org/2000/svg" data-reactroot="">
<path fill-rule="evenodd" clip-rule="evenodd" d="M513.042 171.3C513.048 171.556 512.845 171.769 512.588 171.774L236.214 178.075C219.689 178.452 202.971 178.874 187.326 183.922C171.687 188.969 157.037 199.376 150.817 214.483C143.174 233.046 149.876 255.196 162.894 270.631C175.913 286.068 194.241 295.979 212.591 304.655C295.993 344.091 388.186 364.799 480.441 364.819C502.275 364.823 524.141 363.689 546.01 362.555C547.237 362.492 548.465 362.428 549.692 362.365C549.948 362.351 550.166 362.548 550.18 362.805C550.193 363.061 549.996 363.279 549.74 363.292C548.51 363.356 547.28 363.42 546.049 363.484C524.187 364.617 502.299 365.752 480.44 365.748C388.048 365.728 295.72 344.989 212.194 305.495C193.836 296.815 175.344 286.834 162.184 271.23C149.023 255.625 142.142 233.113 149.958 214.129C156.316 198.688 171.241 188.137 187.041 183.038C202.836 177.942 219.691 177.523 236.193 177.146L512.567 170.846C512.823 170.84 513.036 171.043 513.042 171.3Z" fill="#2249B3"></path>
<path fill-rule="evenodd" clip-rule="evenodd" d="M439.317 575.696V69.8359H441.174V575.696H439.317Z" fill="#B0C1E1"></path>
<path opacity="0.15" d="M439.315 575.697C299.851 575.697 186.385 462.23 186.385 322.767C186.385 183.303 299.851 69.8369 439.315 69.8369" fill="#B0C1E1"></path>
<path opacity="0.15" d="M439.314 520.863C330.083 520.863 241.216 431.996 241.216 322.766C241.216 213.535 330.083 124.668 439.314 124.668" fill="#B0C1E1"></path>
<path opacity="0.25" d="M439.316 466.03C360.318 466.03 296.05 401.763 296.05 322.764C296.05 243.766 360.318 179.499 439.316 179.499" fill="#B0C1E1"></path>
<path opacity="0.5" d="M439.315 411.2C390.475 411.2 350.882 371.607 350.882 322.767C350.882 273.927 390.475 234.334 439.315 234.334" fill="#B0C1E1"></path>
<path d="M439.315 368.191C414.227 368.191 393.89 347.854 393.89 322.767C393.89 297.679 414.227 277.342 439.315 277.342" fill="#B0C1E1"></path>
<path d="M563.666 310.63L520.908 403.567L513.96 418.68H409.448L402.5 403.567L359.742 310.63L373.769 237.589L432.392 216.28H491.016L549.639 237.589L563.666 310.63Z" fill="#2249B3"></path>
<path d="M490.617 172.882V227.929C490.617 230.567 489.326 233.019 487.226 234.617C474.621 244.148 447.256 243.609 436.638 234.561C434.483 232.731 432.792 230.4 432.792 227.567V172.882H490.617Z" fill="#FF7373"></path>
<path d="M477.735 219.981C465.669 229.373 455.029 229.048 445.673 219.981V182.012H477.735V219.981Z" fill="#B0C1E1"></path>
<path opacity="0.42" d="M490.617 172.882V196.328C470.797 209.684 451.603 213.019 432.792 196.513V172.882H490.617Z" fill="black"></path>
<path fill-rule="evenodd" clip-rule="evenodd" d="M448.024 185.607H475.385V217.34L475.091 217.568C470.146 221.417 465.409 223.342 460.879 223.307C456.335 223.273 452.128 221.268 448.255 217.514L448.024 217.29V185.607ZM449.545 187.129V216.643C453.143 220.049 456.916 221.755 460.891 221.785C464.881 221.816 469.196 220.158 473.863 216.593V187.129H449.545Z" fill="#2249B3"></path>
<path d="M461.729 196.26H454.07C431.799 196.26 413.744 178.206 413.744 155.934V108.285C413.744 86.0131 431.799 83.9023 454.07 83.9023H461.729C484.001 83.9023 502.056 86.0131 502.056 108.285V155.934C502.056 178.206 484.001 196.26 461.729 196.26Z" fill="#B0C1E1"></path>
<path fill-rule="evenodd" clip-rule="evenodd" d="M116.284 410.478C91.9592 404.319 64.2451 406.117 44.6908 421.66C34.9306 429.418 28.2281 441.187 25.9547 453.427C23.6817 465.665 25.843 478.329 33.743 487.914C33.9061 488.112 33.8779 488.405 33.6799 488.568C33.482 488.731 33.1893 488.703 33.0261 488.505C24.9143 478.662 22.73 465.702 25.0415 453.257C27.3526 440.814 34.1645 428.84 44.1128 420.933C63.9752 405.145 92.0248 403.377 116.512 409.578C137.997 415.018 157.593 425.818 176.997 436.511C179.699 438 182.397 439.487 185.097 440.958C275.356 490.121 340.787 523.172 442.218 539.233C442.472 539.274 442.644 539.511 442.604 539.765C442.564 540.018 442.326 540.191 442.073 540.151C340.477 524.064 274.929 490.946 184.652 441.773C181.947 440.3 179.246 438.811 176.543 437.322C157.128 426.624 137.644 415.887 116.284 410.478Z" fill="#2249B3"></path>
<path opacity="0.15" d="M784.279 416.451H515.311V431.219H784.279V416.451Z" fill="#B0C1E1"></path>
<path opacity="0.15" d="M784.279 446.269H515.311V461.037H784.279V446.269Z" fill="#B0C1E1"></path>
<path opacity="0.15" d="M784.279 476.09H515.311V490.858H784.279V476.09Z" fill="#B0C1E1"></path>
<path d="M124.884 526.542C168.611 526.542 204.06 491.094 204.06 447.366C204.06 403.639 168.611 368.19 124.884 368.19C81.156 368.19 45.7078 403.639 45.7078 447.366C45.7078 491.094 81.156 526.542 124.884 526.542Z" fill="#2249B3"></path>
<path d="M320.07 31.1543H19.9796V58.5417H320.07V31.1543Z" fill="#2249B3"></path>
<path opacity="0.15" d="M320.07 69.877H19.9796V263.577H320.07V69.877Z" fill="#B0C1E1"></path>
<path opacity="0.15" d="M108.119 83.5713H35.3792V247.326H108.119V83.5713Z" fill="#B0C1E1"></path>
<path opacity="0.15" d="M196.431 83.5713H123.691V92.8603H196.431V83.5713Z" fill="#B0C1E1"></path>
<path opacity="0.15" d="M283.287 83.5713H210.547V92.8603H283.287V83.5713Z" fill="#B0C1E1"></path>
<path opacity="0.15" d="M196.431 115.668H123.691V160.458H196.431V115.668Z" fill="#B0C1E1"></path>
<path opacity="0.15" d="M196.431 172.252H123.691V217.042H196.431V172.252Z" fill="#B0C1E1"></path>
<path opacity="0.15" d="M108.119 256.066H35.3792V321.122H108.119V256.066Z" fill="#B0C1E1"></path>
<path opacity="0.15" d="M283.287 115.668H210.547V160.458H283.287V115.668Z" fill="#B0C1E1"></path>
<path opacity="0.15" d="M283.287 172.252H210.547V217.042H283.287V172.252Z" fill="#B0C1E1"></path>
<path fill-rule="evenodd" clip-rule="evenodd" d="M508.892 180.971C508.892 180.715 509.1 180.507 509.356 180.507H610.948C611.204 180.507 611.412 180.715 611.412 180.971C611.412 181.228 611.204 181.436 610.948 181.436H509.356C509.1 181.436 508.892 181.228 508.892 180.971Z" fill="#2249B3"></path>
<path fill-rule="evenodd" clip-rule="evenodd" d="M537.502 173.685C537.502 173.429 537.71 173.221 537.966 173.221H610.947C611.204 173.221 611.412 173.429 611.412 173.685C611.412 173.942 611.204 174.15 610.947 174.15H537.966C537.71 174.15 537.502 173.942 537.502 173.685Z" fill="#2249B3"></path>
<path fill-rule="evenodd" clip-rule="evenodd" d="M537.502 166.4C537.502 166.143 537.71 165.936 537.966 165.936H630.084C630.341 165.936 630.549 166.143 630.549 166.4C630.549 166.657 630.341 166.864 630.084 166.864H537.966C537.71 166.864 537.502 166.657 537.502 166.4Z" fill="#2249B3"></path>
<path fill-rule="evenodd" clip-rule="evenodd" d="M537.502 159.114C537.502 158.857 537.71 158.649 537.966 158.649H610.947C611.204 158.649 611.412 158.857 611.412 159.114C611.412 159.37 611.204 159.578 610.947 159.578H537.966C537.71 159.578 537.502 159.37 537.502 159.114Z" fill="#2249B3"></path>
<path d="M124.884 447.366H204.06C204.06 490.801 168.318 526.542 124.884 526.542C81.449 526.542 45.7078 490.801 45.7078 447.366C45.7078 403.932 81.449 368.19 124.884 368.19C141.347 368.19 157.407 373.325 170.816 382.876L124.884 447.366Z" fill="#B0C1E1"></path>
<path d="M117.255 431.194H196.431C196.431 474.628 160.69 510.369 117.255 510.369C73.8207 510.369 38.0794 474.628 38.0794 431.194C38.0794 395.066 62.8067 363.301 97.8302 354.438L117.255 431.194Z" fill="#FF7373"></path>
<path fill-rule="evenodd" clip-rule="evenodd" d="M140.264 546.715H38.0794V542.07H140.264V546.715Z" fill="#B0C1E1"></path>
<path fill-rule="evenodd" clip-rule="evenodd" d="M140.264 564.563H38.0794V559.919H140.264V564.563Z" fill="#B0C1E1"></path>
<path fill-rule="evenodd" clip-rule="evenodd" d="M515.542 531.532C515.542 510.495 498.488 493.441 477.45 493.441V491.583C499.514 491.583 517.4 509.469 517.4 531.532C517.4 553.596 499.514 571.482 477.45 571.482C455.387 571.482 437.501 553.596 437.501 531.532H439.359C439.359 552.57 456.413 569.624 477.45 569.624C498.488 569.624 515.542 552.57 515.542 531.532Z" fill="#2249B3"></path>
<path fill-rule="evenodd" clip-rule="evenodd" d="M506.937 522.637C502.94 513.014 495.11 505.382 485.354 501.649L486.017 499.914C496.251 503.83 504.461 511.831 508.653 521.924L506.937 522.637Z" fill="#2249B3"></path>
<path fill-rule="evenodd" clip-rule="evenodd" d="M750.051 279.388C729.013 279.388 711.959 296.442 711.959 317.48C711.959 338.517 729.013 355.571 750.051 355.571C771.088 355.571 788.142 338.517 788.142 317.48C788.142 296.442 771.088 279.388 750.051 279.388ZM710.101 317.48C710.101 295.416 727.987 277.53 750.051 277.53C772.114 277.53 790 295.416 790 317.48C790 339.543 772.114 357.429 750.051 357.429C727.987 357.429 710.101 339.543 710.101 317.48Z" fill="#B0C1E1"></path>
<path fill-rule="evenodd" clip-rule="evenodd" d="M750.98 317.481V527.817C750.98 530.382 748.9 532.461 746.335 532.461H477.45V530.604H746.335C747.874 530.604 749.122 529.356 749.122 527.817V317.481H750.98Z" fill="#B0C1E1"></path>
<path d="M563.292 316.69C563.292 316.69 584.213 424.479 614.648 432.087C645.083 439.696 598.293 307.559 598.293 307.559L589.162 272.559H563.292V316.69Z" fill="#FF7373"></path>
<path d="M555.684 242.122C555.684 242.122 605.902 251.253 610.467 287.775C615.032 324.297 638.287 432.331 638.287 432.331L614.648 432.086L597.015 308.038C597.777 295.956 590.671 284.758 579.414 280.302L563.292 273.92L555.684 242.122Z" fill="#2249B3"></path>
<path d="M564.457 335.525C568.872 335.041 571.809 328.806 571.019 321.599L562.589 244.741C561.925 238.686 558.796 233.706 555.034 232.715L550.881 231.621C545.374 230.17 541.178 237.692 542.596 246.477L555.178 324.429C556.264 331.156 560.299 335.981 564.457 335.525Z" fill="#2249B3"></path>
<path d="M634.072 442.186C651.449 442.186 665.535 428.1 665.535 410.723C665.535 393.347 651.449 379.261 634.072 379.261C616.696 379.261 602.61 393.347 602.61 410.723C602.61 428.1 616.696 442.186 634.072 442.186Z" fill="#FF7373"></path>
<path d="M660.996 277.693L688.095 283.205C688.095 283.205 660.752 423.826 651.197 429.154C639.503 435.673 622.132 436.199 614.059 414.401C607.242 395.995 656.246 308.029 660.996 277.693Z" fill="#2249B3"></path>
<path d="M501.847 87.5045V108.516L413.953 102.859V87.5045C413.953 86.1298 414.12 84.7921 414.427 83.5103C416.34 75.5681 423.837 69.6416 432.801 69.6416H482.999C491.285 69.6416 498.326 74.7134 500.843 81.7545C501.494 83.5567 501.847 85.4887 501.847 87.5045Z" fill="#B0C1E1"></path>
<path d="M367.146 316.327C367.146 316.327 381.921 464.248 351.486 471.857C321.051 479.466 323.616 307.557 323.616 307.557L332.746 272.557L364.438 270.831L367.146 316.327Z" fill="#FF7373"></path>
<path d="M366.225 242.122C366.225 242.122 316.007 251.253 311.442 287.775C306.877 324.297 327.847 472.103 327.847 472.103L351.486 471.857L324.894 308.038C324.132 295.956 331.238 284.758 342.494 280.302L358.616 273.92L366.225 242.122Z" fill="#2249B3"></path>
<path d="M365.481 336.097C361.044 336.292 357.189 330.578 356.871 323.335L353.475 246.091C353.207 240.005 355.539 234.606 359.107 233.053C359.107 233.053 360.452 231.944 367.146 232.782C373.839 233.62 375.481 236.277 375.42 245.175L372.958 323.715C372.911 330.529 369.66 335.913 365.481 336.097Z" fill="#FF7373"></path>
<path d="M350.761 485.557C368.138 485.557 382.224 471.471 382.224 454.094C382.224 436.718 368.138 422.632 350.761 422.632C333.385 422.632 319.299 436.718 319.299 454.094C319.299 471.471 333.385 485.557 350.761 485.557Z" fill="#FF7373"></path>
<path d="M522.574 272.557L512.549 351.688C479.606 354.446 445.71 354.859 410.859 351.688L400.834 272.557C421.227 254.6 507.275 254.672 522.574 272.557Z" fill="#B0C1E1"></path>
<path d="M512.549 278.15L504.174 344.248C476.658 346.551 448.344 346.896 419.234 344.248L410.859 278.15C427.894 263.15 499.769 263.211 512.549 278.15Z" fill="#2249B3"></path>
<path d="M498.935 285.744L492.803 334.144C472.654 335.831 451.921 336.084 430.605 334.144L424.473 285.744C436.946 274.761 489.577 274.805 498.935 285.744Z" fill="#FF7373"></path>
<path d="M476.793 167.16C478.316 171.151 473.02 184.378 458.394 183.646C449.056 183.179 441.165 172.475 442.715 167.16L442.715 167.16L442.715 167.16C454.417 169.792 465.807 170.027 476.793 167.16Z" fill="#2249B3"></path>
<path fill-rule="evenodd" clip-rule="evenodd" d="M496.908 69.2612C497.743 65.9209 501.129 63.8903 504.469 64.7259L504.284 65.4641L504.469 64.7259L511.247 66.4214C514.587 67.257 516.618 70.6422 515.782 73.9826L508.919 101.421C508.083 104.761 504.698 106.792 501.358 105.956L494.58 104.261C491.239 103.425 489.209 100.04 490.044 96.6998L496.908 69.2612ZM504.1 66.2022C501.575 65.5706 499.016 67.1055 498.384 69.6305L491.52 97.069C490.889 99.5941 492.424 102.153 494.949 102.785L501.727 104.48C504.252 105.112 506.811 103.577 507.443 101.052L514.306 73.6133C514.938 71.0883 513.403 68.5293 510.878 67.8977L504.1 66.2022L504.284 65.4668L504.1 66.2022Z" fill="#2249B3"></path>
<path fill-rule="evenodd" clip-rule="evenodd" d="M515.981 39.5704L502.512 92.9789L501.036 92.6068L514.505 39.1982L515.981 39.5704Z" fill="#2249B3"></path>
<path opacity="0.3" d="M515.243 53.7717C507.31 53.7717 500.857 47.3183 500.857 39.3854C500.857 31.4534 507.31 25 515.243 25C523.176 25 529.629 31.4534 529.629 39.3854C529.629 47.3183 523.176 53.7717 515.243 53.7717Z" fill="#FF7373"></path>
<path opacity="0.3" d="M515.243 49.1262C509.871 49.1262 505.501 44.7565 505.501 39.3844C505.501 34.0132 509.871 29.6436 515.243 29.6436C520.615 29.6436 524.985 34.0132 524.985 39.3844C524.985 44.7565 520.615 49.1262 515.243 49.1262Z" fill="#FF7373"></path>
<path d="M515.243 44.4821C518.058 44.4821 520.34 42.2001 520.34 39.3851C520.34 36.5701 518.058 34.2881 515.243 34.2881C512.428 34.2881 510.146 36.5701 510.146 39.3851C510.146 42.2001 512.428 44.4821 515.243 44.4821Z" fill="#FF7373"></path>
<path d="M413.574 364.757C415.271 364.757 416.647 363.381 416.647 361.683C416.647 359.986 415.271 358.609 413.574 358.609C411.876 358.609 410.5 359.986 410.5 361.683C410.5 363.381 411.876 364.757 413.574 364.757Z" fill="#2249B3"></path>
<path d="M421.895 364.757C423.592 364.757 424.969 363.381 424.969 361.683C424.969 359.986 423.592 358.609 421.895 358.609C420.197 358.609 418.821 359.986 418.821 361.683C418.821 363.381 420.197 364.757 421.895 364.757Z" fill="#B0C1E1"></path>
<path d="M430.216 364.757C431.914 364.757 433.29 363.381 433.29 361.683C433.29 359.986 431.914 358.609 430.216 358.609C428.519 358.609 427.143 359.986 427.143 361.683C427.143 363.381 428.519 364.757 430.216 364.757Z" fill="#FF7373"></path>
<path d="M476.923 167.032C477.156 167.215 477.219 167.655 477.171 168.242C476.839 172.28 473.113 174.284 469.121 174.977C462.509 176.125 452.291 175.182 446.563 172.791C444.426 171.898 442.51 170.39 442.565 168.074C442.576 167.645 442.656 167.276 442.845 167.032C454.551 169.816 465.933 169.998 476.923 167.032Z" fill="white"></path>
<path d="M390.24 530.947L413.574 515.087C413.574 515.087 377.702 446.484 365.072 441.761C349.614 435.982 336.69 442.417 333.776 457.674C330.863 472.931 365.062 511.897 390.24 530.947Z" fill="#2249B3"></path>
<path d="M406.303 506.273C414.788 500.153 422.656 494.967 433.516 495.904C439.522 497.645 446.689 500.865 450.934 505.183C455.18 509.501 457.399 515.163 458.93 519.976C459.652 522.251 458.695 522.522 457.363 523.043C455.585 523.739 453.284 523.319 451.993 521.434C449.742 518.144 448.044 514.386 444.148 512.471C440.251 510.557 434.577 509.723 430.858 511.073C427.139 512.424 426.819 514.33 427.489 517.455C420.873 507.609 417.855 510.356 406.303 506.273Z" fill="#2249B3"></path>
<path d="M424.843 548.093C424.843 548.093 407.681 545.836 396.732 539.194C382.959 530.838 391.333 517.435 391.333 517.435L424.843 548.093Z" fill="#2249B3"></path>
<path fill-rule="evenodd" clip-rule="evenodd" d="M450.608 505.545C444.308 512.134 440.752 521.297 440.752 531.532H436.108C436.108 520.217 440.048 509.869 447.251 502.336C454.47 494.786 464.845 490.189 477.45 490.189V494.834C466.028 494.834 456.893 498.972 450.608 505.545Z" fill="#FF7373"></path>
<path d="M689.687 288.578C685.807 293.524 668.821 295.444 657.361 283.207C645.9 270.971 631.371 244.163 643.205 235.76C648.107 232.279 651.862 256.315 654.529 249.107C660.04 234.214 657.876 195.871 670.635 195.871C675 195.871 668.988 208.519 672.73 213.515C676.992 219.205 676.322 224.212 679.201 232.44C683.907 245.884 700.922 253.474 699.782 258.926C697.331 270.642 689.687 288.578 689.687 288.578Z" fill="#2249B3"></path>
<path d="M517.065 411.926L513.96 418.681H409.448L406.456 412.174L517.065 411.926Z" fill="black" fill-opacity="0.5"></path>
<g opacity="0.25">
<path opacity="0.25" d="M501.847 113.939L413.953 108.282V92.927C413.953 91.5523 413.953 88.7684 413.953 88.7684C443.892 75.4849 476.379 76.5369 501.533 87.145C502.281 90.2862 501.887 91.4645 501.847 92.927V113.939Z" fill="#2249B3"></path>
</g>
<path d="M517.303 429.154H406.105C402.515 429.154 399.604 426.244 399.604 422.653V422.653C399.604 419.062 402.515 416.151 406.105 416.151H517.303C520.893 416.151 523.804 419.062 523.804 422.653V422.653C523.804 426.244 520.893 429.154 517.303 429.154Z" fill="#FF7373"></path>
<path opacity="0.25" d="M421.092 162.347C421.092 162.347 495.644 169.085 500.803 165.945C500.803 165.945 501.449 162.767 501.614 161.116L416.215 158.896L421.092 162.347Z" fill="#2249B3"></path>
<path d="M497.088 162.346H418.373C418.373 162.346 403.653 161.674 400.936 154.761C396.369 143.141 391.802 131.522 387.235 119.903C385.016 114.257 386.813 107.766 391.72 104.199C437.914 70.6177 492.648 76.7314 524.689 103.777C529.111 107.511 530.691 113.633 528.574 119.019C523.891 130.933 519.208 142.847 514.525 154.761C511.808 161.674 497.088 162.346 497.088 162.346Z" fill="#2249B3"></path>
<path d="M492.26 143.385C470.073 136.969 445.727 136.969 423.539 143.385C419.718 144.484 415.337 143.286 413.654 140.433C412.02 137.562 410.386 134.691 408.752 131.82C407.069 128.976 409.604 125.228 414.541 123.803C442.539 115.708 473.26 115.707 501.258 123.803C506.196 125.228 508.73 128.977 507.048 131.82C505.414 134.691 503.78 137.562 502.145 140.433C500.462 143.286 496.081 144.484 492.26 143.385Z" fill="white"></path>
<path d="M443.449 131.788C435.889 131.208 428.064 132.834 421.361 136.378C420.207 136.986 418.719 136.894 417.987 136.089C417.27 135.276 416.553 134.462 415.836 133.649C415.105 132.847 415.67 131.473 417.161 130.685C425.62 126.213 435.494 124.161 445.033 124.893C446.716 125.021 447.78 126.057 447.43 127.083C447.096 128.115 446.763 129.147 446.429 130.179C446.079 131.208 444.751 131.886 443.449 131.788Z" fill="#2249B3"></path>
<path d="M472.063 131.788C479.623 131.208 487.448 132.834 494.151 136.378C495.306 136.986 496.794 136.894 497.525 136.089C498.242 135.276 498.959 134.462 499.676 133.649C500.407 132.847 499.843 131.473 498.351 130.685C489.893 126.213 480.018 124.161 470.479 124.893C468.797 125.021 467.732 126.057 468.082 127.083C468.416 128.115 468.75 129.147 469.083 130.179C469.434 131.208 470.762 131.886 472.063 131.788Z" fill="#2249B3"></path>
<path fill-rule="evenodd" clip-rule="evenodd" d="M429.098 325.914C429.098 325.657 429.306 325.449 429.563 325.449H493.846C494.102 325.449 494.31 325.657 494.31 325.914C494.31 326.17 494.102 326.378 493.846 326.378H429.563C429.306 326.378 429.098 326.17 429.098 325.914Z" fill="#2249B3"></path>
<path fill-rule="evenodd" clip-rule="evenodd" d="M429.098 321.122C429.098 320.865 429.306 320.657 429.563 320.657H493.846C494.102 320.657 494.31 320.865 494.31 321.122C494.31 321.378 494.102 321.586 493.846 321.586H429.563C429.306 321.586 429.098 321.378 429.098 321.122Z" fill="#2249B3"></path>
<path fill-rule="evenodd" clip-rule="evenodd" d="M429.098 316.327C429.098 316.07 429.306 315.862 429.563 315.862H493.846C494.102 315.862 494.31 316.07 494.31 316.327C494.31 316.583 494.102 316.791 493.846 316.791H429.563C429.306 316.791 429.098 316.583 429.098 316.327Z" fill="#2249B3"></path>
<path opacity="0.15" d="M669.32 224.686C698.799 224.686 722.696 200.789 722.696 171.31C722.696 141.831 698.799 117.934 669.32 117.934C639.841 117.934 615.944 141.831 615.944 171.31C615.944 200.789 639.841 224.686 669.32 224.686Z" fill="#FF7373"></path>
<path opacity="0.15" d="M669.32 213.115C692.408 213.115 711.125 194.398 711.125 171.31C711.125 148.222 692.408 129.505 669.32 129.505C646.232 129.505 627.515 148.222 627.515 171.31C627.515 194.398 646.232 213.115 669.32 213.115Z" fill="#FF7373"></path>
<path opacity="0.25" d="M669.32 201.544C686.017 201.544 699.553 188.008 699.553 171.311C699.553 154.613 686.017 141.077 669.32 141.077C652.622 141.077 639.086 154.613 639.086 171.311C639.086 188.008 652.622 201.544 669.32 201.544Z" fill="#FF7373"></path>
<path opacity="0.5" d="M669.32 189.973C679.627 189.973 687.982 181.617 687.982 171.311C687.982 161.004 679.627 152.648 669.32 152.648C659.013 152.648 650.658 161.004 650.658 171.311C650.658 181.617 659.013 189.973 669.32 189.973Z" fill="#FF7373"></path>
<path d="M669.32 180.896C674.614 180.896 678.906 176.604 678.906 171.31C678.906 166.015 674.614 161.724 669.32 161.724C664.025 161.724 659.734 166.015 659.734 171.31C659.734 176.604 664.025 180.896 669.32 180.896Z" fill="#FF7373"></path>
<path fill-rule="evenodd" clip-rule="evenodd" d="M10 31.1539C10 30.8974 10.2079 30.6895 10.4645 30.6895H100.737C100.993 30.6895 101.201 30.8974 101.201 31.1539C101.201 31.4104 100.993 31.6184 100.737 31.6184H10.4645C10.2079 31.6184 10 31.4104 10 31.1539Z" fill="#2249B3"></path>
<path fill-rule="evenodd" clip-rule="evenodd" d="M232.826 58.5426C232.826 58.2861 233.034 58.0781 233.29 58.0781H323.563C323.819 58.0781 324.027 58.2861 324.027 58.5426C324.027 58.7991 323.819 59.007 323.563 59.007H233.29C233.034 59.007 232.826 58.7991 232.826 58.5426Z" fill="#2249B3"></path>
<path fill-rule="evenodd" clip-rule="evenodd" d="M26.5185 256.066C26.5185 255.81 26.7264 255.602 26.9829 255.602H117.255C117.512 255.602 117.72 255.81 117.72 256.066C117.72 256.323 117.512 256.53 117.255 256.53H26.9829C26.7264 256.53 26.5185 256.323 26.5185 256.066Z" fill="#2249B3"></path>
<path d="M36.1767 48.7313C38.7121 48.7313 40.7675 46.676 40.7675 44.1406C40.7675 41.6052 38.7121 39.5498 36.1767 39.5498C33.6413 39.5498 31.586 41.6052 31.586 44.1406C31.586 46.676 33.6413 48.7313 36.1767 48.7313Z" fill="#B0C1E1"></path>
<path d="M52.9213 48.7313C55.4568 48.7313 57.5121 46.676 57.5121 44.1406C57.5121 41.6052 55.4568 39.5498 52.9213 39.5498C50.3859 39.5498 48.3306 41.6052 48.3306 44.1406C48.3306 46.676 50.3859 48.7313 52.9213 48.7313Z" fill="#FF7373"></path>
<path opacity="0.15" d="M784.279 446.269H515.311V461.037H784.279V446.269Z" fill="#B0C1E1"></path>
<path opacity="0.15" d="M784.279 476.09H515.311V490.858H784.279V476.09Z" fill="#B0C1E1"></path>
<path fill-rule="evenodd" clip-rule="evenodd" d="M508.892 180.971C508.892 180.715 509.1 180.507 509.356 180.507H610.948C611.204 180.507 611.412 180.715 611.412 180.971C611.412 181.228 611.204 181.436 610.948 181.436H509.356C509.1 181.436 508.892 181.228 508.892 180.971Z" fill="#2249B3"></path>
<path fill-rule="evenodd" clip-rule="evenodd" d="M537.502 173.685C537.502 173.429 537.71 173.221 537.966 173.221H610.947C611.204 173.221 611.412 173.429 611.412 173.685C611.412 173.942 611.204 174.15 610.947 174.15H537.966C537.71 174.15 537.502 173.942 537.502 173.685Z" fill="#2249B3"></path>
<path fill-rule="evenodd" clip-rule="evenodd" d="M537.502 166.4C537.502 166.143 537.71 165.936 537.966 165.936H630.084C630.341 165.936 630.549 166.143 630.549 166.4C630.549 166.657 630.341 166.864 630.084 166.864H537.966C537.71 166.864 537.502 166.657 537.502 166.4Z" fill="#2249B3"></path>
<path fill-rule="evenodd" clip-rule="evenodd" d="M537.502 159.114C537.502 158.857 537.71 158.649 537.966 158.649H610.947C611.204 158.649 611.412 158.857 611.412 159.114C611.412 159.37 611.204 159.578 610.947 159.578H537.966C537.71 159.578 537.502 159.37 537.502 159.114Z" fill="#2249B3"></path>
<path d="M564.457 335.525C568.872 335.041 571.809 328.806 571.019 321.599L562.589 244.741C561.925 238.686 558.796 233.706 555.034 232.715L550.881 231.621C545.374 230.17 541.178 237.692 542.596 246.477L555.178 324.429C556.264 331.156 560.299 335.981 564.457 335.525Z" fill="#FF7373"></path>
<path d="M512.549 278.15L504.174 344.248C476.658 346.551 448.344 346.896 419.234 344.248L410.859 278.15C427.894 263.15 499.769 263.211 512.549 278.15Z" fill="#2249B3"></path>
<path d="M498.935 285.744L492.803 334.144C472.654 335.831 451.921 336.084 430.605 334.144L424.473 285.744C436.946 274.761 489.577 274.805 498.935 285.744Z" fill="#FF7373"></path>
<path d="M476.793 167.16C478.316 171.151 473.02 184.378 458.394 183.646C449.056 183.179 441.165 172.475 442.715 167.16L442.715 167.16L442.715 167.16C454.417 169.792 465.807 170.027 476.793 167.16Z" fill="#464646"></path>
<path d="M413.574 364.757C415.271 364.757 416.647 363.381 416.647 361.683C416.647 359.986 415.271 358.609 413.574 358.609C411.876 358.609 410.5 359.986 410.5 361.683C410.5 363.381 411.876 364.757 413.574 364.757Z" fill="#FF7373"></path>
<path d="M421.895 364.757C423.592 364.757 424.969 363.381 424.969 361.683C424.969 359.986 423.592 358.609 421.895 358.609C420.197 358.609 418.821 359.986 418.821 361.683C418.821 363.381 420.197 364.757 421.895 364.757Z" fill="#B0C1E1"></path>
<path d="M430.216 364.757C431.914 364.757 433.29 363.381 433.29 361.683C433.29 359.986 431.914 358.609 430.216 358.609C428.519 358.609 427.143 359.986 427.143 361.683C427.143 363.381 428.519 364.757 430.216 364.757Z" fill="#FF7373"></path>
<path d="M476.923 167.032C477.156 167.215 477.219 167.655 477.171 168.242C476.839 172.28 473.113 174.284 469.121 174.977C462.509 176.125 452.291 175.182 446.563 172.791C444.426 171.898 442.51 170.39 442.565 168.074C442.576 167.645 442.656 167.276 442.845 167.032C454.551 169.816 465.933 169.998 476.923 167.032Z" fill="white"></path>
<path d="M424.843 548.093C424.843 548.093 407.681 545.836 396.732 539.194C382.959 530.838 391.333 517.435 391.333 517.435L424.843 548.093Z" fill="#2249B3"></path>
<path opacity="0.25" d="M421.092 162.347C421.092 162.347 495.644 169.085 500.803 165.945C500.803 165.945 501.449 162.767 501.614 161.116L416.215 158.896L421.092 162.347Z" fill="#2249B3"></path>
<path fill-rule="evenodd" clip-rule="evenodd" d="M429.098 325.914C429.098 325.657 429.306 325.449 429.563 325.449H493.846C494.102 325.449 494.31 325.657 494.31 325.914C494.31 326.17 494.102 326.378 493.846 326.378H429.563C429.306 326.378 429.098 326.17 429.098 325.914Z" fill="#2249B3"></path>
<path fill-rule="evenodd" clip-rule="evenodd" d="M429.098 321.122C429.098 320.865 429.306 320.657 429.563 320.657H493.846C494.102 320.657 494.31 320.865 494.31 321.122C494.31 321.378 494.102 321.586 493.846 321.586H429.563C429.306 321.586 429.098 321.378 429.098 321.122Z" fill="#2249B3"></path>
<path fill-rule="evenodd" clip-rule="evenodd" d="M429.098 316.327C429.098 316.07 429.306 315.862 429.563 315.862H493.846C494.102 315.862 494.31 316.07 494.31 316.327C494.31 316.583 494.102 316.791 493.846 316.791H429.563C429.306 316.791 429.098 316.583 429.098 316.327Z" fill="#2249B3"></path>
<path fill-rule="evenodd" clip-rule="evenodd" d="M10 31.1539C10 30.8974 10.2079 30.6895 10.4645 30.6895H100.737C100.993 30.6895 101.201 30.8974 101.201 31.1539C101.201 31.4104 100.993 31.6184 100.737 31.6184H10.4645C10.2079 31.6184 10 31.4104 10 31.1539Z" fill="#2249B3"></path>
<path d="M36.1767 48.7313C38.7121 48.7313 40.7675 46.676 40.7675 44.1406C40.7675 41.6052 38.7121 39.5498 36.1767 39.5498C33.6413 39.5498 31.586 41.6052 31.586 44.1406C31.586 46.676 33.6413 48.7313 36.1767 48.7313Z" fill="#B0C1E1"></path>
<path d="M52.9213 48.7313C55.4568 48.7313 57.5121 46.676 57.5121 44.1406C57.5121 41.6052 55.4568 39.5498 52.9213 39.5498C50.3859 39.5498 48.3306 41.6052 48.3306 44.1406C48.3306 46.676 50.3859 48.7313 52.9213 48.7313Z" fill="#FF7373"></path>
<path d="M395.709 541.272C384.595 531 403.963 495.213 424.255 504.906C433.778 509.456 463.651 520.899 461.704 525.319C459.758 529.74 443.342 550.032 429.406 553.034C411.147 556.967 395.709 541.272 395.709 541.272Z" fill="#2249B3"></path>
</svg>
