<svg xmlns="http://www.w3.org/2000/svg" xmlns:xlink="http://www.w3.org/1999/xlink" data-name="Layer 1" viewBox="0 0 1400 1000" id="robot-working-in-office"><defs><linearGradient id="b" x1="582.97" x2="860.88" y1="473.58" y2="601.06" gradientUnits="userSpaceOnUse"><stop offset="0" stop-color="#f09f21" stop-opacity="0"></stop><stop offset=".11" stop-color="#f0a021" stop-opacity=".02"></stop><stop offset=".23" stop-color="#f1a321" stop-opacity=".08"></stop><stop offset=".37" stop-color="#f2a720" stop-opacity=".18"></stop><stop offset=".52" stop-color="#f4ad20" stop-opacity=".32"></stop><stop offset=".68" stop-color="#f6b620" stop-opacity=".49"></stop><stop offset=".83" stop-color="#f9bf1f" stop-opacity=".7"></stop></linearGradient><linearGradient id="a" x1="659.18" x2="857.8" y1="196.95" y2="196.95" gradientUnits="userSpaceOnUse"><stop offset="0" stop-color="#4058a6"></stop><stop offset="1" stop-color="#5884c3" stop-opacity=".1"></stop></linearGradient><linearGradient id="c" x1="682.97" x2="827.84" y1="149.87" y2="149.87" xlink:href="#a"></linearGradient><linearGradient id="d" x1="682.97" x2="827.84" y1="174.25" y2="174.25" xlink:href="#a"></linearGradient><linearGradient id="e" x1="682.97" x2="827.84" y1="198.62" y2="198.62" xlink:href="#a"></linearGradient><linearGradient id="f" x1="682.97" x2="827.84" y1="222.99" y2="222.99" xlink:href="#a"></linearGradient><linearGradient id="g" x1="1090.37" x2="1089.41" y1="901.1" y2="796.4" gradientUnits="userSpaceOnUse"><stop offset="0" stop-color="#fff" stop-opacity="0"></stop><stop offset=".01" stop-color="#fcfdfe" stop-opacity=".02"></stop><stop offset=".14" stop-color="#d1ddef" stop-opacity=".27"></stop><stop offset=".28" stop-color="#acc2e1" stop-opacity=".5"></stop><stop offset=".43" stop-color="#8eacd6" stop-opacity=".68"></stop><stop offset=".57" stop-color="#769ace" stop-opacity=".82"></stop><stop offset=".71" stop-color="#658ec8" stop-opacity=".92"></stop><stop offset=".85" stop-color="#5b86c4" stop-opacity=".98"></stop><stop offset="1" stop-color="#5884c3"></stop></linearGradient><linearGradient id="h" x1="815.46" x2="1112.72" y1="416.57" y2="416.57" gradientUnits="userSpaceOnUse"><stop offset="0" stop-color="#f2ba34"></stop><stop offset=".13" stop-color="#f2bb37" stop-opacity=".98"></stop><stop offset=".26" stop-color="#f3be41" stop-opacity=".94"></stop><stop offset=".39" stop-color="#f4c452" stop-opacity=".85"></stop><stop offset=".52" stop-color="#f5cc69" stop-opacity=".74"></stop><stop offset=".64" stop-color="#f7d686" stop-opacity=".59"></stop><stop offset=".77" stop-color="#fae2ab" stop-opacity=".41"></stop><stop offset=".89" stop-color="#fcf1d5" stop-opacity=".21"></stop><stop offset="1" stop-color="#fff" stop-opacity="0"></stop></linearGradient><linearGradient id="i" x1="962.21" x2="1083.75" y1="420.47" y2="420.47" xlink:href="#a"></linearGradient><linearGradient id="j" x1="895.2" x2="944.66" y1="388.22" y2="388.22" xlink:href="#a"></linearGradient><linearGradient id="k" x1="895.2" x2="944.66" y1="404.78" y2="404.78" xlink:href="#a"></linearGradient><linearGradient id="l" x1="895.2" x2="944.66" y1="421.34" y2="421.34" xlink:href="#a"></linearGradient><linearGradient id="m" x1="895.2" x2="944.66" y1="455.83" y2="455.83" xlink:href="#a"></linearGradient><linearGradient id="n" x1="895.2" x2="944.66" y1="439.03" y2="439.03" xlink:href="#a"></linearGradient><linearGradient id="o" x1="920.45" x2="1217.71" y1="239.72" y2="239.72" gradientUnits="userSpaceOnUse"><stop offset="0" stop-color="#f25654"></stop><stop offset=".09" stop-color="#f25a58" stop-opacity=".97"></stop><stop offset=".22" stop-color="#f36765" stop-opacity=".9"></stop><stop offset=".37" stop-color="#f57b79" stop-opacity=".78"></stop><stop offset=".54" stop-color="#f79796" stop-opacity=".62"></stop><stop offset=".72" stop-color="#fabbba" stop-opacity=".4"></stop><stop offset=".9" stop-color="#fde6e6" stop-opacity=".15"></stop><stop offset="1" stop-color="#fff" stop-opacity="0"></stop></linearGradient><linearGradient id="p" x1="940.39" x2="1061.93" y1="238.65" y2="238.65" xlink:href="#a"></linearGradient><linearGradient id="q" x1="1101.67" x2="1196.28" y1="233.6" y2="233.6" xlink:href="#a"></linearGradient><linearGradient id="r" x1="1101.67" x2="1196.28" y1="250.16" y2="250.16" xlink:href="#a"></linearGradient><linearGradient id="s" x1="1101.67" x2="1196.28" y1="266.72" y2="266.72" xlink:href="#a"></linearGradient></defs><polygon fill="#f0f3f8" points="1120.72 332.45 1008.2 332.45 942.38 266.62 668.75 266.62 602.92 332.45 279.27 332.45 164.43 447.29 164.43 609.7 279.27 724.54 602.92 724.54 668.75 790.37 942.38 790.37 1008.2 724.54 1120.72 724.54 1235.57 609.7 1235.57 447.29 1120.72 332.45"></polygon><polygon fill="#f0f3f8" points="566.61 118.65 403.62 118.65 344.93 177.34 344.93 240.33 403.62 299.02 566.61 299.02 625.3 240.33 625.3 177.34 566.61 118.65"></polygon><g data-name="Robot\Leg\Front"><path fill="#e6eaf5" d="M531.85,557.87l-89.47,2.81a18.15,18.15,0,0,1-18.62-20.13l12.63-115.08a18.18,18.18,0,0,1,17.49-16.17l57-1.79a18.17,18.17,0,0,1,18.47,15l19.84,114.06A18.16,18.16,0,0,1,531.85,557.87Z"></path><path fill="#c4cee5" d="M458.48,518.57c-4.15-4.37-5-15.18-6.54-36.78a264.83,264.83,0,0,1,.76-49.34,212.94,212.94,0,0,1,4-23.24l-2.81.09a18.18,18.18,0,0,0-17.49,16.17L423.76,540.55a18.15,18.15,0,0,0,18.62,20.13l89.47-2.81a18.16,18.16,0,0,0,17.33-21.26l-1.17-6.7c-3.11-1.14-6.25-2.15-9.13-3.08C498.35,513.75,472.65,533.48,458.48,518.57Z"></path><path fill="#e6eaf5" d="M436.26,628.46a4.29,4.29,0,0,1-4.19-5.17c2.59-12.15,14.83-14.86,29.53-14.86H610.39c14.7,0,26.93,2.71,29.53,14.86a4.29,4.29,0,0,1-4.2,5.17Z"></path><path fill="#c4cee5" d="M502.13 608.43H461.6c-14.7 0-26.94 2.71-29.53 14.86a4.29 4.29 0 004.19 5.17H472.1C472.1 611.88 485.55 608.43 502.13 608.43zM489.4 628.46h93.19a0 0 0 010 0v8.17a3 3 0 01-3 3H492.4a3 3 0 01-3-3v-8.17A0 0 0 01489.4 628.46z"></path><path fill="#e6eaf5" d="M527.91 639.63h16.17a0 0 0 010 0v20.49a3 3 0 01-3 3H530.91a3 3 0 01-3-3V639.63a0 0 0 010 0zM530.91 816.08h10.17a3 3 0 013 3v20.49a0 0 0 010 0H527.91a0 0 0 010 0V819.08a3 3 0 013-3z"></path><rect width="4" height="152.96" x="533.99" y="663.12" fill="#c4cee5"></rect><path fill="#c4cee5" d="M622.47,858.44h-4a16.89,16.89,0,0,0-16.87-16.87H470.39a16.88,16.88,0,0,0-16.87,16.87h-4a20.89,20.89,0,0,1,20.87-20.87H601.6A20.89,20.89,0,0,1,622.47,858.44Z"></path><circle cx="451.52" cy="868.64" r="12.71" fill="#e6eaf5"></circle><circle cx="451.52" cy="868.64" r="6.74" fill="#c4cee5"></circle><circle cx="620.47" cy="868.64" r="12.71" fill="#e6eaf5"></circle><circle cx="620.47" cy="868.64" r="6.74" fill="#c4cee5"></circle><circle cx="572.18" cy="793.73" r="9.71" fill="#30302f"></circle><path fill="none" stroke="#30302f" stroke-miterlimit="10" stroke-width="3" d="M582.67,767.16l-10.22-.52c-1.9-.1-3.48,1-3.45,2.29l.68,41.69c0,1.26,1.43,2.32,3.21,2.42l6.11.31"></path><polygon fill="#ee465e" points="610.46 789 577.53 788.88 585.61 656 477.37 596.78 530.43 561.66 597.4 654.4 610.46 789"></polygon><path fill="#4e4f50" d="M473.21,576.23H498.9a3,3,0,0,1,3,3v5.88a22.8,22.8,0,0,1-22.8,22.8h-5.88a3,3,0,0,1-3-3V579.23a3,3,0,0,1,3-3Z" transform="rotate(-1.24 487.099 593.523)"></path><path fill="#79797a" d="M475,589.89l-1.28,0a3.54,3.54,0,0,1-3.61-3.46l.18,8.49a3.52,3.52,0,0,0,3.61,3.45l1.28,0a26.87,26.87,0,0,0,26.28-27.45l0-1.28a3.53,3.53,0,0,0-.57-1.84A26.87,26.87,0,0,1,475,589.89Z"></path><path fill="#4e4f50" d="M537.06,610.47c5.08,3.3,10,6.81,14.92,10.3s9.76,7.1,14.55,10.76,9.55,7.36,14.31,11.05,9.41,7.53,14.11,11.3l1.14.92,0,1.49q-.37,12.45-.88,24.9c-.41,8.3-.7,16.61-1.22,24.9s-1,16.59-1.6,24.89-1.28,16.58-2.19,24.86c-.43-8.32-.58-16.63-.75-25s-.18-16.63-.14-24.94.15-16.61.22-24.92.33-16.61.57-24.91l1.1,2.4c-4.63-3.85-9.29-7.67-13.9-11.56s-9.19-7.79-13.68-11.82-9-8-13.45-12.1S541.3,614.8,537.06,610.47Z"></path><circle cx="667.43" cy="788.88" r="9.71" fill="#30302f"></circle><path fill="none" stroke="#30302f" stroke-miterlimit="10" stroke-width="3" d="M676,761.61l-10.24.23c-1.9,0-3.39,1.2-3.27,2.54l3.73,41.53c.11,1.25,1.6,2.2,3.37,2.17l6.12-.14"></path><polygon fill="#ee465e" points="671.22 787.68 704.11 786.14 678.74 653.98 584.5 581 493.28 582.98 665.7 657.84 671.22 787.68"></polygon><path fill="#4e4f50" d="M561.9,574.31h5.88a22.8,22.8,0,0,1,22.8,22.8V603a3,3,0,0,1-3,3H561.9a3,3,0,0,1-3-3V577.31A3,3,0,0,1,561.9,574.31Z" transform="rotate(178.76 574.762 590.133)"></path><path fill="#79797a" d="M585.72,587.49l1.28,0a3.52,3.52,0,0,0,3.45-3.61l.19,8.48a3.55,3.55,0,0,1-3.46,3.62l-1.28,0a26.86,26.86,0,0,1-27.44-26.28l0-1.28a3.47,3.47,0,0,1,.49-1.86A26.89,26.89,0,0,0,585.72,587.49Z"></path><path fill="#c23e56" d="M671.22,786.85l.76,35,77.37-1.68-.25-11.86a8.26,8.26,0,0,0-8.25-8.07c-11.29-.06-31.07-2-36.74-14.15h0Z"></path><path fill="#30302f" d="M672.18,821.89a9.64,9.64,0,0,1,2.37-7.16,10.15,10.15,0,0,1,7.05-3.42,10.46,10.46,0,0,1,7.57,2.7,10.68,10.68,0,0,1,3.47,7.44l-2.34,0a10.75,10.75,0,0,1,2.9-7.81A11,11,0,0,1,712.26,821l-3,.07A11,11,0,0,1,728,812.93a10.76,10.76,0,0,1,3.24,7.68l-2.34,0a10.62,10.62,0,0,1,3.14-7.58,10.46,10.46,0,0,1,7.45-3,10.17,10.17,0,0,1,7.19,3.11,9.67,9.67,0,0,1,2.68,7.06,9.62,9.62,0,0,0-3.26-6.46,9.14,9.14,0,0,0-6.58-2.24,8.77,8.77,0,0,0-6.06,2.92,8.64,8.64,0,0,0-2.22,6.17l-2.34,0a8.62,8.62,0,0,0-2.71-5.83,8.33,8.33,0,0,0-11.68.36,8.21,8.21,0,0,0-2.24,5.83l-3,.07a8.22,8.22,0,0,0-2.49-5.74,8.36,8.36,0,0,0-11.69.15,8.58,8.58,0,0,0-2.45,6l-2.34,0a8.69,8.69,0,0,0-2.48-6.08,8.83,8.83,0,0,0-6.19-2.65,9.19,9.19,0,0,0-6.48,2.53A9.62,9.62,0,0,0,672.18,821.89Z"></path><path fill="#c23e56" d="M577.55,788.88l.76,35,77.37-1.68-.26-11.86a8.25,8.25,0,0,0-8.24-8.07c-11.29-.06-31.07-2-36.74-14.15h0Z"></path><path fill="#30302f" d="M578.5,823.93a9.69,9.69,0,0,1,2.38-7.17,10.15,10.15,0,0,1,7-3.42,10.51,10.51,0,0,1,7.57,2.7,10.63,10.63,0,0,1,3.46,7.44l-2.33,0a10.75,10.75,0,0,1,2.9-7.81,11,11,0,0,1,15.6-.45,11.16,11.16,0,0,1,3.46,7.79l-3,.06a11.19,11.19,0,0,1,3.12-7.93,11,11,0,0,1,15.61-.23,10.77,10.77,0,0,1,3.24,7.69l-2.34.05a10.68,10.68,0,0,1,3.13-7.59,10.54,10.54,0,0,1,7.46-3,10.21,10.21,0,0,1,7.19,3.11,9.69,9.69,0,0,1,2.68,7.06,9.66,9.66,0,0,0-3.26-6.46,9.18,9.18,0,0,0-6.58-2.24,8.77,8.77,0,0,0-6.06,2.92,8.65,8.65,0,0,0-2.22,6.18l-2.34.05a8.59,8.59,0,0,0-2.72-5.84,8.32,8.32,0,0,0-11.67.36,8.19,8.19,0,0,0-2.24,5.84l-3,.06a8.13,8.13,0,0,0-2.48-5.73,8.34,8.34,0,0,0-11.69.14,8.63,8.63,0,0,0-2.46,6l-2.33,0a8.69,8.69,0,0,0-2.48-6.08A8.87,8.87,0,0,0,588,814.8a9.18,9.18,0,0,0-6.48,2.53A9.67,9.67,0,0,0,578.5,823.93Z"></path><circle cx="593.05" cy="656.2" r="16" fill="#4e4f50"></circle><circle cx="593.05" cy="656.2" r="9.15" fill="#ee465e"></circle><path fill="#30302f" d="M576.85,579.65a208.36,208.36,0,0,1-93,2.83,63.67,63.67,0,0,0-2.31-19.37A64.38,64.38,0,0,0,468,538.26a2.35,2.35,0,0,1,1.73-3.89l119.3-2.59a2.36,2.36,0,0,1,2,3.66,86.34,86.34,0,0,0-14.22,44.21Z"></path><path fill="#ee465e" d="M576.85,579.65a208.36,208.36,0,0,1-93,2.83,63.67,63.67,0,0,0-2.31-19.37A64.38,64.38,0,0,0,468,538.26a2.35,2.35,0,0,1,1.73-3.89l119.3-2.59a2.36,2.36,0,0,1,2,3.66,86.34,86.34,0,0,0-14.22,44.21Z"></path><path fill="#c23e56" d="M579.43,561.8c.17-.7.37-1.35.56-2-8.18,4.56-17.5,5-36.92,4.55-17.72-.46-32.42-16.71-40.21-30.67l-32.81.72c.12,2.28.25,4.57.41,6.85a63.22,63.22,0,0,1,13.4,41.26,208.36,208.36,0,0,0,93-2.83A86.22,86.22,0,0,1,579.43,561.8Z"></path><path fill="#545554" d="M548.17,560.57a31.63,31.63,0,0,0-37.35-.24l-2.52,1.8a27.12,27.12,0,0,1-26.19,3.17c.22.93.42,1.83.6,2.73a29.47,29.47,0,0,0,27-4l2.51-1.8a29.31,29.31,0,0,1,34.58.22,29.61,29.61,0,0,0,32,2c.19-.9.4-1.8.64-2.71,0-.18.1-.35.14-.53a27.29,27.29,0,0,1-31.4-.7Z"></path><path fill="#484748" d="M521 555.49a31.63 31.63 0 00-10.18 4.84l-2.52 1.8a27.12 27.12 0 01-26.19 3.17c.22.93.42 1.83.6 2.73h0a29.47 29.47 0 0027-4l2.51-1.8a29.42 29.42 0 0111.28-4.92C522.63 556.74 521.81 556.12 521 555.49zM565 565.89a27.35 27.35 0 01-9.29-1.43c-1.81 0-3.74 0-5.79 0a29.49 29.49 0 0028.88.06h0c.19-.9.4-1.8.64-2.71 0-.18.1-.35.14-.53A27.32 27.32 0 01565 565.89z"></path><path fill="#ea5f7a" d="M505.67,536a208,208,0,0,1,26.48-3.67c8.82-.73,17.63-1.06,26.45-1.12,2.21,0,4.41,0,6.62,0s4.41,0,6.61.12,4.41.12,6.62.24l3.3.15,1.66.1.54,0a7.66,7.66,0,0,1,1.11.14,6.88,6.88,0,0,1,2.2.89,6.57,6.57,0,0,1,2.75,3.6,6.37,6.37,0,0,1-.25,4.45,5.2,5.2,0,0,1-.52,1l-.13.21-.06.07-.13.16-.51.64-1,1.24c-1.32,1.66-2.57,3.27-3.7,5-2.3,3.47-4.22,7.53-6.57,11.47a46,46,0,0,1,1.46-13.73,39.81,39.81,0,0,1,2.58-6.63l.76-1.55.39-.76.1-.18.05-.1s0,0,0,0-.09.14-.15.22a1.76,1.76,0,0,0,.54,2.29,1.92,1.92,0,0,0,.66.32,1.36,1.36,0,0,0,.29.06c.09,0,0,0-.08,0h-.21l-1.65.1-3.32.13c-2.2.1-4.41.15-6.62.19s-4.41.07-6.62.08-4.42,0-6.63,0c-8.83-.12-17.66-.5-26.5-1.29A206.09,206.09,0,0,1,505.67,536Z"></path><path fill="#ee465e" d="M524.21,588.42a210.26,210.26,0,0,1-40.74-4l-1.67-.33.06-1.7a61.29,61.29,0,0,0-2.24-18.76,61.91,61.91,0,0,0-13.1-24.07,4.35,4.35,0,0,1,3.2-7.21L589,529.78a4.35,4.35,0,0,1,3.73,6.76,84.89,84.89,0,0,0-11.37,25.75,83.87,83.87,0,0,0-2.52,17.44l-.06,1.48-1.44.38a210.33,210.33,0,0,1-46.41,6.72C528.7,588.39,526.45,588.42,524.21,588.42Zm-38.32-7.58a206.06,206.06,0,0,0,89-2.76,88.28,88.28,0,0,1,14.48-43.74.35.35,0,0,0,0-.38.34.34,0,0,0-.32-.18l-119.29,2.59a.34.34,0,0,0-.33.21.31.31,0,0,0,.06.37,65.86,65.86,0,0,1,13.93,25.62A64.86,64.86,0,0,1,485.89,580.84Z"></path><path fill="#4e4f50" d="M620.88,619c4.55,2.42,8.94,5.06,13.34,7.68s8.72,5.36,13,8.16,8.52,5.63,12.79,8.46,8.39,5.82,12.59,8.73l1.09.75.16,1.36c.86,7.71,1.7,15.43,2.46,23.16s1.54,15.45,2.13,23.2,1.23,15.48,1.77,23.24.94,15.52,1.16,23.31c-1.54-7.64-2.81-15.31-4.09-23s-2.41-15.36-3.49-23.05-2.08-15.39-3.12-23.08-1.9-15.42-2.78-23.13l1.24,2.11c-4.13-3-8.29-6-12.4-9s-8.21-6.1-12.21-9.28-8-6.34-12-9.57S624.66,622.54,620.88,619Z"></path><circle cx="674.19" cy="654.44" r="16" fill="#4e4f50"></circle><circle cx="674.19" cy="654.44" r="9.15" fill="#ee465e"></circle></g><g data-name="Robot\Head\Front"><rect width="19.3" height="15.95" x="513.34" y="400.41" fill="#30302f" transform="rotate(178.92 522.978 408.4)"></rect><rect width="46.85" height="26.09" x="542.37" y="373.44" fill="#aa3552" rx="5" transform="rotate(178.92 565.788 386.506)"></rect><rect width="76.02" height="76.02" x="470.46" y="324.59" fill="#c53c56" rx="7" transform="rotate(178.92 508.458 362.614)"></rect><rect width="76.02" height="76.02" x="493.76" y="324.15" fill="#ee465e" rx="7" transform="rotate(178.92 531.764 362.174)"></rect><rect width="13.13" height="9.2" x="518.49" y="351.22" fill="#30302f" rx="1" transform="rotate(88.9 525.067 356.374)"></rect><rect width="25.29" height="10.2" x="521.49" y="373.47" fill="#30302f" rx="1" transform="rotate(180 533.861 378.859)"></rect><rect width="46.85" height="26.09" x="462.09" y="374.95" fill="#d13f5b" rx="5" transform="rotate(178.92 485.506 388.01)"></rect><path fill="#aa3552" d="M466.85,375.3l17.9-.33a5,5,0,0,0-4.9,5.09l.3,16.09a5,5,0,0,0,5.09,4.9l-17.9.34a5,5,0,0,1-5.1-4.9l-.3-16.09A5,5,0,0,1,466.85,375.3Z"></path><path fill="#d13f5b" d="M481.26,313.2l.91,48.34a4,4,0,0,0,4.07,3.92l12.75-.24a4,4,0,0,0,3.93-4.07l-.54-28.34a4,4,0,0,1,3.93-4.07l53.77-1a4,4,0,0,1,4.07,3.92l.53,28.33a4,4,0,0,0,4.08,3.93l12.75-.24a4,4,0,0,0,3.92-4.08l-.91-48.33a4,4,0,0,0-4.07-3.92l-95.27,1.79A4,4,0,0,0,481.26,313.2Z"></path><path fill="#aa3552" d="M506.2,313.84l70.38-1.33a3.37,3.37,0,0,1,3.43,3.3l.9,47.87-12.15.23a4,4,0,0,1-4.08-3.93l-.53-28.33a4,4,0,0,0-4.07-3.92l-53.77,1a4,4,0,0,0-3.92,4l-.28-14.67A4.17,4.17,0,0,1,506.2,313.84Z"></path><rect width="19.3" height="15.95" x="522.99" y="400.23" fill="#474748" transform="rotate(178.92 532.625 408.22)"></rect><path fill="#fff" d="M565.58 374.6a39.36 39.36 0 011.18 4.79c.3 1.6.52 3.2.7 4.8a81.4 81.4 0 01.43 9.62v.13A1.89 1.89 0 01566 395.8c-2.3 0-4.61-.16-6.92-.41-1.16-.13-2.31-.28-3.47-.5a30.89 30.89 0 01-3.47-.78 30.63 30.63 0 013.44-.91c1.15-.27 2.3-.46 3.45-.63 2.3-.34 4.6-.56 6.9-.68l-1.92 2a81.28 81.28 0 01.08-9.62c.11-1.61.27-3.22.51-4.83A37.73 37.73 0 01565.58 374.6zM560.52 351.85a34.85 34.85 0 01-1.18-4.79c-.3-1.6-.53-3.2-.7-4.8a81.51 81.51 0 01-.44-9.62l2 1.91q-8.46.06-16.92-.22c-2.82-.12-5.65-.22-8.47-.41s-5.65-.38-8.47-.68c2.81-.42 5.62-.73 8.44-1s5.63-.5 8.45-.72c5.63-.41 11.26-.68 16.9-.86a1.91 1.91 0 012 1.82v.09a81.43 81.43 0 01-.07 9.63c-.11 1.61-.29 3.22-.53 4.83A36 36 0 01560.52 351.85z"></path><rect width="13.13" height="9.2" x="549.41" y="350.64" fill="#30302f" rx="1" transform="rotate(88.92 555.988 355.265)"></rect></g><g data-name="Robot\Body\Front"><circle cx="627.94" cy="442.99" r="9.91" fill="#30302f"></circle><circle cx="653.88" cy="437.84" r="14.78" fill="#30302f"></circle><circle cx="676.2" cy="423.66" r="9.91" fill="#30302f"></circle><circle cx="415.16" cy="531.13" r="9.91" fill="#30302f"></circle><circle cx="410.28" cy="557.12" r="14.78" fill="#30302f"></circle><circle cx="415.13" cy="583.12" r="9.91" fill="#30302f"></circle><rect width="42.8" height="16.42" x="507.2" y="515.68" fill="#4e4f50"></rect><path fill="#f6be1d" d="M578.35,520.85l-7.56.93a347.25,347.25,0,0,1-84.38,0l-7.56-.93a4.35,4.35,0,0,1-3.77-3.72l-.86-6.33a347.08,347.08,0,0,1-1.86-76.64l.69-8a4.33,4.33,0,0,1,4-3.95l24.43-1.92a348.79,348.79,0,0,1,54.28,0l24.43,1.92a4.34,4.34,0,0,1,4,3.95l.69,8A347.08,347.08,0,0,1,583,510.8l-.86,6.33A4.35,4.35,0,0,1,578.35,520.85Z"></path><path fill="#ee9e23" d="M582.12,517.13l.86-6.33q1.49-10.95,2.26-21.95c-14,13.89-19.48,15.2-47.19,13.89-17.75-.83-31.86-18.79-38.16-32.41-4.54-9.81-12.52-45.35-13.94-48.77l-8.92.7a4.33,4.33,0,0,0-4,3.95l-.69,8a347.09,347.09,0,0,0,1.86,76.64l.86,6.33a4.35,4.35,0,0,0,3.77,3.72l7.56.93a347.25,347.25,0,0,0,84.38,0l7.56-.93A4.35,4.35,0,0,0,582.12,517.13Z"></path><path fill="#f6be1d" d="M545.9,427.67a55.07,55.07,0,0,1-8.94,8h0c1.07.57,29.09,14.78,66.86,15,34.76.21,86.67-11.24,136.61-67l-8.08-7.24c-37.78,42.19-80.83,63.53-128,63.41C574,439.81,551.67,430.37,545.9,427.67Z"></path><circle cx="656.14" cy="443.45" r="14.78" fill="#4e4f50"></circle><circle cx="656.14" cy="443.45" r="8.45" fill="#30302f"></circle><circle cx="629.76" cy="447.52" r="9.91" fill="#4e4f50"></circle><circle cx="629.76" cy="447.52" r="5.01" fill="#30302f"></circle><circle cx="678.01" cy="428.18" r="9.91" fill="#4e4f50"></circle><circle cx="678.01" cy="428.18" r="5.01" fill="#30302f"></circle><path fill="#ee9e23" d="M770.54,380.49l-6.4-5.85a15.64,15.64,0,1,1-23.08-21.1l-6.4-5.85a24.31,24.31,0,1,0,35.88,32.8Z"></path><circle cx="737.2" cy="379.35" r="9.91" fill="#4e4f50"></circle><circle cx="737.2" cy="379.35" r="5.01" fill="#ee9e23"></circle><path fill="#f8e782" d="M492.18 462.92h-22.1v-1c.06-9.36.49-18.73 1.28-27.84l.69-7.95a5.33 5.33 0 014.9-4.86l21.43-1.68v37.13A6.21 6.21 0 01492.18 462.92zm-20.09-2h20.09a4.21 4.21 0 004.2-4.21v-35l-19.27 1.51a3.33 3.33 0 00-3.07 3l-.69 7.95C472.6 443 472.17 451.94 472.09 460.92zM580.3 505.61H558.19v-1c.06-9.37.49-18.73 1.28-27.84l.69-7.95a5.31 5.31 0 014.89-4.86l21.44-1.68v37.13A6.21 6.21 0 01580.3 505.61zm-20.09-2H580.3a4.21 4.21 0 004.2-4.2v-35L565.22 466a3.32 3.32 0 00-3.06 3l-.69 7.95C560.71 485.67 560.29 494.64 560.21 503.61z"></path><path fill="#ee9e23" d="M556.43 420.4v26.81a4.33 4.33 0 004.34 4.33h12.79a4.33 4.33 0 004.33-4.33V422.08zM554.53 500.28a4.34 4.34 0 00-4.34 4.34v19q10.32-.63 20.6-1.89l7.56-.93a4.35 4.35 0 003.77-3.72l.86-6.33c.47-3.5.88-7 1.25-10.52z"></path><path fill="#e77b26" d="M570.18 500.28c-5.1 2.2-10.93 2.9-19.71 2.85a4.38 4.38 0 00-.28 1.49v19q10.23-.63 20.43-1.87l.17 0 7.56-.93a4.31 4.31 0 003-1.75 4.25 4.25 0 00.8-2l.86-6.33c.47-3.5.88-7 1.25-10.52zM487.11 483.12H471.6q.76 13.88 2.62 27.68l.86 6.33a4.35 4.35 0 003.77 3.72l7.56.93c2.4.29 4.8.53 7.2.77V489.62A6.5 6.5 0 00487.11 483.12z"></path><path fill="#4e4f50" d="M551.67,420.06a14.32,14.32,0,0,0-14-11.21H521.32a14.3,14.3,0,0,0-13.93,11.09A346.17,346.17,0,0,1,551.67,420.06Z"></path><path fill="#ee9e23" d="M471.06 476.87l-9.1-12.1c-13-25-5.38-29.55 8-36.84l3.14-1.72zM585.83 476.87l9.1-12.1c13-25 5.38-29.55-7.95-36.84l-3.13-1.72z"></path><path fill="#e77b26" d="M528.6,526.52a348.25,348.25,0,0,1-42.45-2.59l-7.56-.93a6.49,6.49,0,0,1-5.65-5.58l-.87-6.33A350.2,350.2,0,0,1,470.2,434l.69-8a6.47,6.47,0,0,1,6-5.92l24.43-1.92a350.69,350.69,0,0,1,54.62,0l24.43,1.92a6.47,6.47,0,0,1,6,5.92l.69,8a350.2,350.2,0,0,1-1.87,77.12l-.87,6.33a6.49,6.49,0,0,1-5.65,5.58l-7.56.93A348.37,348.37,0,0,1,528.6,526.52Zm0-105.07c-9,0-18,.35-27,1.06l-24.43,1.91a2.17,2.17,0,0,0-2,2l-.69,8a345.09,345.09,0,0,0,1.85,76.15l.86,6.34a2.16,2.16,0,0,0,1.88,1.86l7.57.93a344.83,344.83,0,0,0,83.84,0l7.57-.93a2.16,2.16,0,0,0,1.88-1.86l.86-6.34a345.09,345.09,0,0,0,1.85-76.15l-.69-8a2.17,2.17,0,0,0-2-2l-24.43-1.91C546.62,421.8,537.61,421.45,528.6,421.45Z"></path><path fill="#f6be1d" d="M459.94,460.7a55.09,55.09,0,0,1-4.12-11.29h0c-.93.78-24.55,21.49-38.83,56.46-13.14,32.17-21.85,84.62,11.29,151.73l9.72-4.8c-25.08-50.78-28.84-98.67-11.17-142.36C438.2,482.28,455.29,465.05,459.94,460.7Z"></path><circle cx="404.24" cy="557.12" r="14.78" fill="#4e4f50"></circle><circle cx="404.24" cy="557.12" r="8.45" fill="#30302f"></circle><circle cx="529.63" cy="473.63" r="14.78" fill="#30302f"></circle><circle cx="529.63" cy="467.58" r="14.78" fill="#4e4f50"></circle><circle cx="529.63" cy="467.58" r="8.45" fill="#30302f"></circle><circle cx="410.28" cy="531.13" r="9.91" fill="#4e4f50"></circle><circle cx="410.28" cy="531.13" r="5.01" fill="#30302f"></circle><circle cx="410.25" cy="583.12" r="9.91" fill="#4e4f50"></circle><circle cx="410.25" cy="583.12" r="5.01" fill="#30302f"></circle><path fill="#ee9e23" d="M420,686.74a24.31,24.31,0,0,1,43.81-21.07L456,669.43A15.64,15.64,0,0,0,427.86,683Z"></path><circle cx="433.52" cy="656.23" r="9.91" fill="#4e4f50"></circle><circle cx="433.52" cy="656.23" r="5.01" fill="#ee9e23"></circle><circle cx="489.03" cy="487.93" r="1.87" fill="#020202"></circle><circle cx="561.07" cy="446.17" r="1.87" fill="#020202"></circle><circle cx="574.22" cy="446.17" r="1.87" fill="#020202"></circle><circle cx="574.22" cy="428.08" r="1.87" fill="#020202"></circle><circle cx="561.07" cy="426.21" r="1.87" fill="#020202"></circle><circle cx="554.56" cy="504.71" r="1.87" fill="#020202"></circle><circle cx="577.89" cy="504.61" r="1.87" fill="#020202"></circle><circle cx="477.41" cy="487.93" r="1.87" fill="#020202"></circle><circle cx="489.91" cy="516.56" r="1.87" fill="#020202"></circle><circle cx="554.56" cy="517.55" r="1.87" fill="#020202"></circle></g><polygon fill="#e4e8f1" points="241.75 881.35 226.61 881.35 270.58 619.28 310.15 619.28 241.75 881.35"></polygon><polygon fill="#e4e8f1" points="945.77 881.35 960.91 881.35 916.94 619.28 877.37 619.28 945.77 881.35"></polygon><rect width="698.93" height="25.9" x="244.29" y="606.97" fill="#c4cfe6"></rect><rect width="742.9" height="26.14" x="222.31" y="593.78" fill="#e4e8f1"></rect><path fill="#c4cfe6" d="M354.09,581.44H334.14V558.12h19.95a11.66,11.66,0,0,1,0,23.32Zm-15.95-4h15.95a7.66,7.66,0,0,0,0-15.32H338.14Z"></path><path fill="#c4cfe6" d="M265.53,557.05h83.91a0,0,0,0,1,0,0v0A36.42,36.42,0,0,1,313,593.48H302a36.42,36.42,0,0,1-36.42-36.42v0a0,0,0,0,1,0,0Z"></path><path fill="#a8b9df" d="M288.23 500.49a2.68 2.68 0 01-.28 2 7 7 0 01-1.29 1.57 6 6 0 00-1.06 1.26 1.73 1.73 0 00-.19 1.12 1.5 1.5 0 00.46.92 8.67 8.67 0 001.21.92 7.88 7.88 0 011.71 1.46 4.24 4.24 0 01.94 2.65 4.3 4.3 0 01-.94 2.65 7.88 7.88 0 01-1.71 1.46 8.67 8.67 0 00-1.21.92 1.62 1.62 0 00-.46.91 1.83 1.83 0 00.2 1.13 5.42 5.42 0 001.06 1.25 7.55 7.55 0 011.28 1.58 2.66 2.66 0 01.28 2c-.34-1.32-1.32-1.82-2.44-2.38a7.16 7.16 0 01-1.73-1.22 3.82 3.82 0 01-1-2.35 3.93 3.93 0 01.74-2.55 8.24 8.24 0 011.59-1.56 5.42 5.42 0 001.08-1 1.26 1.26 0 00.27-.81 1.28 1.28 0 00-.26-.82 6.07 6.07 0 00-1.08-1A8.24 8.24 0 01283.8 509a4 4 0 01-.75-2.55 3.73 3.73 0 011-2.34 6.64 6.64 0 011.73-1.22C286.9 502.31 287.89 501.8 288.23 500.49zM309.3 522.7a2.67 2.67 0 01-.28 2 7.75 7.75 0 01-1.28 1.57 5.54 5.54 0 00-1.07 1.25 1.82 1.82 0 00-.19 1.13 1.62 1.62 0 00.46.91 8 8 0 001.21.92 7.44 7.44 0 011.71 1.46 4.21 4.21 0 010 5.3 7.61 7.61 0 01-1.71 1.46 8.67 8.67 0 00-1.21.92 1.62 1.62 0 00-.46.91 1.83 1.83 0 00.2 1.13 5.45 5.45 0 001.06 1.26 7.27 7.27 0 011.29 1.57 2.7 2.7 0 01.27 2c-.34-1.32-1.32-1.82-2.44-2.38a7.31 7.31 0 01-1.72-1.22 3.75 3.75 0 01-1-2.34 4 4 0 01.74-2.56 8.24 8.24 0 011.59-1.56 5.44 5.44 0 001.08-1 1.25 1.25 0 00.27-.82 1.29 1.29 0 00-.26-.82 6.07 6.07 0 00-1.08-1 8.54 8.54 0 01-1.59-1.56 3.92 3.92 0 01-.74-2.55 3.68 3.68 0 011-2.34 6.68 6.68 0 011.72-1.22C308 524.52 309 524 309.3 522.7zM324.23 488.6a2.72 2.72 0 01-.28 2 7.46 7.46 0 01-1.29 1.57 6 6 0 00-1.06 1.25 1.75 1.75 0 00-.19 1.13 1.56 1.56 0 00.46.92 8 8 0 001.21.91 7.69 7.69 0 011.71 1.47 4.24 4.24 0 01.94 2.65 4.3 4.3 0 01-.94 2.65 8.17 8.17 0 01-1.71 1.46 8 8 0 00-1.21.91 1.62 1.62 0 00-.46.92 1.8 1.8 0 00.2 1.12 5.45 5.45 0 001.06 1.26 7.75 7.75 0 011.28 1.57 2.67 2.67 0 01.28 2c-.34-1.31-1.32-1.82-2.44-2.38a7.16 7.16 0 01-1.73-1.22 3.79 3.79 0 01-1-2.34 3.92 3.92 0 01.74-2.55 8 8 0 011.59-1.57 5.74 5.74 0 001.08-1 1.4 1.4 0 000-1.64 6.07 6.07 0 00-1.08-1 8 8 0 01-1.59-1.56 4 4 0 01-.75-2.55 3.73 3.73 0 011-2.34 6.89 6.89 0 011.73-1.22C322.9 490.42 323.89 489.91 324.23 488.6zM332.21 582.89H321.15a36.42 36.42 0 01-34.85-25.84H265.53A36.43 36.43 0 00302 593.48H313a36.31 36.31 0 0026.35-11.29A36.58 36.58 0 01332.21 582.89z"></path><g><polygon fill="url(#b)" points="521.5 577.38 639.5 387.38 872.5 474.38 728.5 576.38 521.5 577.38"></polygon><path fill="#4e4f50" d="M877.27,481.84V583.78a10,10,0,0,1-10,10H728.45V481.84a8.18,8.18,0,0,1,8.18-8.18H869.09A8.18,8.18,0,0,1,877.27,481.84Z"></path><path fill="#30302f" d="M728.45,481.84V593.78h10.84V473.65h-2.65A8.19,8.19,0,0,0,728.45,481.84Z"></path><rect width="27.2" height="12.72" x="795.23" y="525.04" fill="#21201f" rx="6.36"></rect><polygon fill="#565757" points="815.37 473.66 768.31 593.77 741.61 593.77 788.67 473.66 815.37 473.66"></polygon><path fill="#565757" d="M877.27,481.74h0l-43.89,112H790.93L838,473.66h31.2A8.08,8.08,0,0,1,877.27,481.74Z"></path><path fill="#30302f" d="M816.07,537.75a6.35,6.35,0,0,0,6.36-6.35h0a6.36,6.36,0,0,0-4.66-6.13l-4.89,12.48Z"></path><path fill="#7b7c7c" d="M652.3,576.42h225a0,0,0,0,1,0,0v7.36a10,10,0,0,1-10,10h-210a10,10,0,0,1-10-10v-2.36A5,5,0,0,1,652.3,576.42Z"></path><path fill="#adadae" d="M739.29,576.42h138a0,0,0,0,1,0,0v7.36a10,10,0,0,1-10,10h-118a10,10,0,0,1-10-10v-7.36A0,0,0,0,1,739.29,576.42Z"></path></g><g><path fill="url(#a)" d="M659.18,124.91V246.22a5,5,0,0,0,5,5h98.19a1,1,0,0,1,.7.28l23,22.2a1,1,0,0,0,1.44-.05l19.45-22.09a1,1,0,0,1,.75-.34h45.19a5,5,0,0,0,5-5V124.91a5,5,0,0,0-5-5H664.14A5,5,0,0,0,659.18,124.91Z" opacity=".51"></path><line x1="682.97" x2="827.84" y1="149.87" y2="149.87" fill="none" stroke="url(#c)" stroke-miterlimit="10" stroke-width="7"></line><line x1="682.97" x2="827.84" y1="174.25" y2="174.25" fill="none" stroke="url(#d)" stroke-miterlimit="10" stroke-width="7"></line><line x1="682.97" x2="827.84" y1="198.62" y2="198.62" fill="none" stroke="url(#e)" stroke-miterlimit="10" stroke-width="7"></line><line x1="682.97" x2="827.84" y1="222.99" y2="222.99" fill="none" stroke="url(#f)" stroke-miterlimit="10" stroke-width="7"></line><polygon fill="#fff" points="733.65 119.95 706.07 250.74 676.17 250.74 703.75 119.95 733.65 119.95" opacity=".22"></polygon><polygon fill="#fff" points="784.14 119.95 756.56 250.74 717.46 250.74 745.05 119.95 784.14 119.95" opacity=".22"></polygon></g><g><path fill="none" stroke="#b2c0d6" stroke-miterlimit="10" stroke-width="3" d="M265,315.23c-4.86-6.27-5.1-11.36-4.92-13.88.17-2.21.91-4.19,2.41-8.15,3.17-8.39,4.89-9.14,5.71-13.21.92-4.59-.35-8.21-2.55-14.42-3.28-9.3-6.46-10.34-7.06-17.2a17.84,17.84,0,0,1,1.49-10c2-3.82,4.21-3.91,8.33-8.75a28.74,28.74,0,0,0,6-9.83c1.89-5.81.85-11,0-14.95-.93-4.32-2.55-7.65-5.77-14.31-4.13-8.54-6.22-9.83-7.26-15.38a29.35,29.35,0,0,1-.22-9.62,32.76,32.76,0,0,1,1.92-6.83,40.37,40.37,0,0,1,2.78-5.77"></path><path fill="#3e5fab" d="M263,359.1a15.31,15.31,0,0,0,15.31-15.31H247.64A15.3,15.3,0,0,0,263,359.1Z"></path><path fill="#d0d9ea" d="M320.44,348.74l-115-.9a1,1,0,0,1-.27-2L263,329.24l57.79,17.54A1,1,0,0,1,320.44,348.74Z"></path><path fill="#b2c0d6" d="M255.42,341.24c0-5.69,6-5.69,6-11.39,0-.06,0-.11,0-.17l-56.25,16.2a1,1,0,0,0,.27,2l54.3.43C258,346.25,255.42,345,255.42,341.24Z"></path><line x1="262.95" x2="262.95" y1="150.96" y2="331.16" fill="none" stroke="#b2c0d6" stroke-miterlimit="10" stroke-width="3"></line><path fill="#3e5fab" d="M268.64,323.08V305.14a1,1,0,0,0-1-1h-8.52a1,1,0,0,0-1,1v17.94a1,1,0,0,1-1,1H243.48a1,1,0,0,0-1,1v8.16a1,1,0,0,0,1,1h38.94a1,1,0,0,0,1-1v-8.16a1,1,0,0,0-1-1H269.64A1,1,0,0,1,268.64,323.08Z"></path><line x1="322.5" x2="322.5" y1="118.65" y2="217.73" fill="none" stroke="#b2c0d6" stroke-miterlimit="10" stroke-width="3"></line><rect width="11.96" height="31.24" x="315.47" y="217.73" fill="#3e5fab" rx="2"></rect><path fill="#c4cfe6" d="M331.86,262.71V241a2,2,0,0,0-2-2H313a2,2,0,0,0-2,2v21.74a19.1,19.1,0,1,0,20.83,0Z"></path><path fill="#a8b9df" d="M328.35,287.86a17.62,17.62,0,0,1-17.62-17.62v-7.32a19.08,19.08,0,1,0,27.47,24.94Z"></path><line x1="381.62" x2="381.62" y1="183.78" y2="274.79" fill="none" stroke="#b2c0d6" stroke-miterlimit="10" stroke-width="3"></line><rect width="11.96" height="31.24" x="375.64" y="274.79" fill="#3e5fab" rx="2"></rect><rect width="21.8" height="56.95" x="370.72" y="296.03" fill="#d0d9ea" rx="2"></rect><path fill="#b2c0d6" d="M380.64,296c0,5.69-6,5.69-6,11.39s6,5.69,6,11.39-6,5.69-6,11.38,6,5.7,6,11.4-6,5.7-6,11.39h-1.92a2,2,0,0,1-2-2V298a2,2,0,0,1,2-2Z"></path></g><g><path fill="#dde6f4" d="M1051.05,792.52c-8.23-7.76-8.37-16-9-51.28-.71-38.64,2-61.36,2-61.36.81-6.69,6.21-23.66,5.6-36.86-.67-14.59-3.74-26-5.12-36.74-3.08-24,2.91-60.66,18.13-65.72,7.41-2.46,17.68,3.15,23.46,43.24,2.86,19.84,3.61,33.17,1.09,42.61-1.28,4.75-3,8.32-3.62,15.16a55,55,0,0,0,2.89,21.67c1.7,5.67,2.58,17.5,4.34,41.17,3.38,45.47-.29,83.83-3.61,88.47C1079.47,803.61,1063.3,804,1051.05,792.52Z"></path><path fill="#a4b5dd" d="M1067,540a108.59,108.59,0,0,1,4.18,16.08c1,5.43,1.75,10.91,2.24,16.42s.76,11,.74,16.55-.11,10.87-.45,16.32c-.72,10.86-2.24,21.91-3.56,32.81l-2,16.33a95.26,95.26,0,0,0-.28,16.11c.14,2.68.4,5.36.68,8l.89,8c.64,5.38,1.15,10.81,1.62,16.29s.84,11,1,16.61-.23,11.34-.43,16.43c-.18,5.25-.12,10.54,0,15.9s.38,10.78.48,16.31c.07,2.76,0,5.55-.09,8.34-.08,1.41-.11,2.8-.23,4.21s-.27,2.8-.46,4.2a59.45,59.45,0,0,1-4.35,16.2l-1-.25a97.85,97.85,0,0,0,.2-16.13c-.21-2.65-.5-5.3-.81-7.95s-.77-5.3-1.15-8c-1.72-10.65-3.37-21.75-3.31-33.07.12-5.81.46-10.92.65-16.26s.12-10.68,0-16.09-.3-10.85-.2-16.37l.09-4.14c0-1.38.14-2.78.21-4.16.18-2.77.37-5.54.68-8.31.56-5.54,1.43-11,2.43-16.48a131.09,131.09,0,0,0,2.06-16.12c.71-10.83-1-21.63-1.56-32.57-.31-5.45-.29-11-.1-16.39s.27-10.76.37-16.15l.38-32.6Z"></path><path fill="#a8b9df" d="M1104.86,795.77s-7-26.55-2.71-93.71a296.42,296.42,0,0,0-1.41-29.67c-1.54-14.21,2.55-55.61,16.76-56.33s17.09,42.36,15.89,59.94-.73,25.76,1.68,35.15,2.41,72.94-5.29,86.9S1104.86,795.77,1104.86,795.77Z"></path><path fill="#899fca" d="M1118,616a89,89,0,0,1,3,11.61c.75,3.9,1.29,7.82,1.71,11.75s.69,7.87.79,11.82a83.79,83.79,0,0,1-.33,11.85c-.18,2-.45,3.94-.77,5.91s-.66,3.92-1,5.88a117.38,117.38,0,0,0-1.69,11.66,94.87,94.87,0,0,0-.2,11.68c.15,3.9.63,7.78,1.14,11.68s1.07,7.84,1.38,11.8.43,7.91.5,11.86l.22,23.21,0,11.57c0,3.88,0,7.78-.15,11.73a115.5,115.5,0,0,1-.87,12,55.44,55.44,0,0,1-2.68,11.8l-1-.13c-.37-4-.86-7.8-1.45-11.62l-1.89-11.5A194.8,194.8,0,0,1,1112,757c-.09-2-.08-4-.1-6s.09-4,.2-6,.27-4,.42-6l.49-5.8c.52-7.75,1.26-15.44,2.09-23.29a222,222,0,0,0,1.32-23.58c0-3.91-.23-7.89-.6-11.79s-.8-7.8-1-11.67c-.06-1-.12-1.94-.15-2.91s-.07-1.94-.09-2.91c0-1.94,0-3.87,0-5.81.06-3.88.15-7.76.33-11.65s.39-7.79.72-11.71.74-7.85,1.4-11.81Z"></path><path fill="#b2c2e3" d="M1140.05,787.46a2,2,0,0,1,2,2V829a52.36,52.36,0,0,1-74.24,47.57,49.52,49.52,0,0,1-6-3.28A52.28,52.28,0,0,1,1037.33,829V789.46a2,2,0,0,1,2-2Z"></path><path fill="url(#g)" d="M1100.44,845.61h0a52.36,52.36,0,0,1-52.36-52.36v-5.79h-8.75a2,2,0,0,0-2,2V829a52.37,52.37,0,0,0,52.36,52.36h0A52.36,52.36,0,0,0,1142.05,829v-4A52.23,52.23,0,0,1,1100.44,845.61Z" opacity=".47"></path><path fill="#fff" d="M1099.39 787.46l-37.62 85.82a52.48 52.48 0 01-19-20.93l28.45-64.89zM1142.05 789.46v5L1105 879.09a52.72 52.72 0 01-15.27 2.26 52 52 0 01-21.88-4.79l39-89.1h33.19A2 2 0 011142.05 789.46z" opacity=".21"></path></g><g data-name="Tabs"><path fill="url(#h)" d="M815.46,357.17h297.26a0,0,0,0,1,0,0V472a4,4,0,0,1-4,4H819.46a4,4,0,0,1-4-4V357.17A0,0,0,0,1,815.46,357.17Z" opacity=".47"></path><path fill="#a8b9df" d="M1108.72,336.29H819.46a4,4,0,0,0-4,4v16.88h297.26V340.29A4,4,0,0,0,1108.72,336.29Z"></path><rect width="121.54" height="82.61" x="962.21" y="379.17" fill="url(#i)" rx="4"></rect><circle cx="1098.85" cy="347.02" r="2.4" fill="#ee6355"></circle><circle cx="1086.16" cy="347.02" r="2.4" fill="#44b562"></circle><circle cx="1073.46" cy="347.02" r="2.4" fill="#efdc54"></circle><line x1="895.2" x2="944.66" y1="388.22" y2="388.22" fill="none" stroke="url(#j)" stroke-miterlimit="10" stroke-width="6"></line><line x1="895.2" x2="944.66" y1="404.78" y2="404.78" fill="none" stroke="url(#k)" stroke-miterlimit="10" stroke-width="6"></line><line x1="895.2" x2="944.66" y1="421.34" y2="421.34" fill="none" stroke="url(#l)" stroke-miterlimit="10" stroke-width="6"></line><line x1="895.2" x2="944.66" y1="455.83" y2="455.83" fill="none" stroke="url(#m)" stroke-miterlimit="10" stroke-width="6"></line><line x1="895.2" x2="944.66" y1="439.03" y2="439.03" fill="none" stroke="url(#n)" stroke-miterlimit="10" stroke-width="6"></line><path fill="#3e5fab" d="M879.4,399.83c0,15.43-11.2,24.35-25,24.35s-25-8.92-25-24.35,11.21-28,25-28S879.4,384.39,879.4,399.83Z"></path><path fill="#c4cfe6" d="M858.55,398.18a7.53,7.53,0,0,0,2.44-5.6,6.93,6.93,0,1,0-13.84,0,7.51,7.51,0,0,0,2.64,5.76,12.29,12.29,0,0,0-7.7,11.39v2.58h24.59v-2.58A12.28,12.28,0,0,0,858.55,398.18Z"></path><polygon fill="#fff" points="1025.99 379.17 1002.24 461.78 976.5 461.78 1000.25 379.17 1025.99 379.17" opacity=".39"></polygon><polygon fill="#fff" points="1069.46 379.17 1045.71 461.78 1012.05 461.78 1035.8 379.17 1069.46 379.17" opacity=".39"></polygon></g><g data-name="Tabs"><path fill="#a8b9df" d="M920.45,180.32V163.44a4,4,0,0,1,4-4h289.26a4,4,0,0,1,4,4v16.88Z"></path><path fill="url(#o)" d="M920.45,180.32h297.26a0,0,0,0,1,0,0v114.8a4,4,0,0,1-4,4H924.45a4,4,0,0,1-4-4V180.32A0,0,0,0,1,920.45,180.32Z" opacity=".47"></path><rect width="121.54" height="47.52" x="940.39" y="214.89" fill="url(#p)" rx="4"></rect><polygon fill="#fff" points="1000.11 214.89 986.45 262.41 960.71 262.41 974.37 214.89 1000.11 214.89" opacity=".35"></polygon><polygon fill="#fff" points="1043.58 214.89 1029.92 262.41 996.26 262.41 1009.92 214.89 1043.58 214.89" opacity=".35"></polygon><rect width="94.61" height="15.12" x="1101.67" y="195.44" fill="#a8b9df" rx="4"></rect><circle cx="1203.84" cy="170.18" r="2.4" fill="#ee6355"></circle><circle cx="1191.15" cy="170.18" r="2.4" fill="#44b562"></circle><circle cx="1178.46" cy="170.18" r="2.4" fill="#efdc54"></circle><line x1="1101.67" x2="1196.28" y1="233.6" y2="233.6" fill="none" stroke="url(#q)" stroke-miterlimit="10" stroke-width="7"></line><line x1="1101.67" x2="1196.28" y1="250.16" y2="250.16" fill="none" stroke="url(#r)" stroke-miterlimit="10" stroke-width="7"></line><line x1="1101.67" x2="1196.28" y1="266.72" y2="266.72" fill="none" stroke="url(#s)" stroke-miterlimit="10" stroke-width="7"></line></g><g><path fill="#a4b5dd" d="M1204.13,358.85a2.5,2.5,0,0,1-3.38,1l-18-9.5a109.58,109.58,0,0,1,14.27,36c7,34.74-.2,66.09-20.33,88.28-29.93,33-72.63,30.35-80.88,29.48a2.5,2.5,0,1,1,.52-5c4.8.5,47.75,4,76.66-27.87,19-21,25.82-50.79,19.13-83.93a104.89,104.89,0,0,0-15.2-36.81l-5.59,21a2.5,2.5,0,0,1-4.84-1.29l6.74-25.34a2.5,2.5,0,0,1,.94-2.67,2.9,2.9,0,0,1,.34-.19,2.77,2.77,0,0,1,.55-.33l.13-.06a2.55,2.55,0,0,1,2,.14l25.88,13.64A2.51,2.51,0,0,1,1204.13,358.85Z"></path></g></svg>